<?xml version="1.0" encoding="UTF-8"?>
<svg xmlns="http://www.w3.org/2000/svg" xmlns:xlink="http://www.w3.org/1999/xlink" width="60px" height="60px" viewBox="0 0 60 60" version="1.1">
<g id="surface1">
<path style=" stroke:none;fill-rule:nonzero;fill:rgb(34.117647%,64.313725%,100%);fill-opacity:1;" d="M 6.5 60.117188 C 5.765625 58.863281 6.222656 57.503906 6.097656 56.199219 C 6.070312 55.929688 6.09375 55.65625 6.09375 55.382812 C 6.09375 54.382812 6.457031 54.027344 7.488281 54.023438 C 7.664062 54.023438 7.835938 54.023438 8.085938 54.023438 C 8.085938 53.050781 8.085938 52.101562 8.085938 51.152344 C 8.085938 50.492188 8.523438 50.046875 9.195312 50.039062 C 10.128906 50.035156 11.0625 50.039062 12.070312 50.039062 C 12.070312 49.78125 12.070312 49.558594 12.070312 49.332031 C 12.070312 38.75 12.082031 28.167969 12.050781 17.585938 C 12.050781 16.492188 12.546875 15.910156 13.597656 16.050781 C 13.730469 16.070312 13.863281 16.054688 14.0625 16.054688 C 14.0625 15.167969 14.0625 14.316406 14.0625 13.460938 C 14.0625 12.519531 14.210938 12.3125 15.117188 12.003906 C 15.117188 9.105469 15.128906 6.195312 15.105469 3.289062 C 15.101562 2.769531 15.199219 2.304688 15.679688 2.148438 C 16.148438 1.996094 16.613281 2.085938 17.03125 2.53125 C 18.234375 3.8125 19.519531 5.011719 20.726562 6.289062 C 20.988281 6.5625 21.175781 7.015625 21.191406 7.394531 C 21.242188 8.929688 21.210938 10.46875 21.210938 12.039062 C 21.84375 12.039062 22.4375 12.039062 23.085938 12.039062 C 23.085938 11.816406 23.085938 11.605469 23.085938 11.398438 C 23.085938 8.058594 23.09375 4.71875 23.078125 1.382812 C 23.074219 0.90625 23.164062 0.503906 23.476562 0.148438 C 23.871094 0.117188 24.304688 0.117188 24.789062 0.117188 C 24.910156 0.242188 24.949219 0.410156 25.050781 0.488281 C 26.21875 1.386719 27.378906 2.289062 28.570312 3.148438 C 28.988281 3.449219 29.191406 3.777344 29.1875 4.292969 C 29.171875 6.847656 29.179688 9.40625 29.179688 12.015625 C 29.996094 12.140625 30.160156 12.699219 30.125 13.4375 C 30.085938 14.289062 30.117188 15.144531 30.117188 15.996094 C 30.765625 16.199219 31.632812 15.71875 31.96875 16.542969 C 32.207031 17.125 32.214844 17.804688 32.335938 18.484375 C 33.890625 19.15625 35.523438 19.867188 37.15625 20.570312 C 39.472656 21.570312 41.789062 22.5625 44.101562 23.566406 C 45.234375 24.058594 46.347656 24.582031 47.480469 25.078125 C 47.984375 25.300781 48.171875 25.660156 48.171875 26.210938 C 48.160156 33.921875 48.164062 41.632812 48.164062 49.34375 C 48.164062 49.554688 48.164062 49.765625 48.164062 50.039062 C 49.117188 50.039062 50.027344 50.039062 50.9375 50.039062 C 51.738281 50.042969 52.148438 50.445312 52.148438 51.230469 C 52.148438 52.140625 52.148438 53.054688 52.148438 53.960938 C 52.609375 54.023438 53.027344 54.042969 53.429688 54.144531 C 53.90625 54.261719 54.15625 54.570312 54.148438 55.105469 C 54.125 56.355469 54.125 57.605469 54.148438 58.851562 C 54.160156 59.328125 54.0625 59.730469 53.75 60.085938 C 38.042969 60.117188 22.300781 60.117188 6.5 60.117188 Z M 30.117188 19.398438 C 30.117188 19.300781 30.117188 19.203125 30.117188 19.105469 C 30.117188 18.152344 30.117188 18.152344 29.167969 18.152344 C 24.386719 18.152344 19.601562 18.164062 14.820312 18.140625 C 14.21875 18.136719 14.0625 18.316406 14.0625 18.902344 C 14.082031 29.054688 14.074219 39.207031 14.078125 49.359375 C 14.078125 50.132812 14.089844 50.144531 14.863281 50.144531 C 19.648438 50.148438 24.429688 50.148438 29.214844 50.148438 C 30.117188 50.148438 30.117188 50.144531 30.117188 49.269531 C 30.117188 39.351562 30.117188 29.433594 30.117188 19.398438 Z M 40.136719 50.148438 C 41.875 50.148438 43.613281 50.148438 45.347656 50.144531 C 46.15625 50.144531 46.15625 50.144531 46.15625 49.324219 C 46.160156 42.023438 46.152344 34.722656 46.167969 27.421875 C 46.171875 26.910156 45.996094 26.65625 45.539062 26.460938 C 41.628906 24.78125 37.734375 23.078125 33.832031 21.382812 C 33.304688 21.152344 32.773438 20.941406 32.152344 20.6875 C 32.132812 20.996094 32.109375 21.183594 32.109375 21.375 C 32.109375 30.742188 32.113281 40.113281 32.097656 49.484375 C 32.097656 50.054688 32.3125 50.160156 32.816406 50.15625 C 35.21875 50.136719 37.617188 50.148438 40.136719 50.148438 Z M 48.691406 56.128906 C 35.527344 56.128906 22.363281 56.128906 9.203125 56.132812 C 7.972656 56.132812 8.101562 55.984375 8.09375 57.214844 C 8.089844 58.125 8.09375 58.125 9.023438 58.125 C 22.929688 58.125 36.835938 58.128906 50.738281 58.117188 C 52.367188 58.117188 52.109375 58.453125 52.144531 56.632812 C 52.152344 56.246094 51.992188 56.117188 51.621094 56.125 C 50.683594 56.140625 49.746094 56.128906 48.691406 56.128906 Z M 13.886719 54.023438 C 25.921875 54.023438 37.960938 54.023438 50.003906 54.023438 C 50.003906 53.367188 50.003906 52.773438 50.003906 52.179688 C 36.726562 52.179688 23.480469 52.179688 10.230469 52.179688 C 10.230469 52.804688 10.230469 53.398438 10.230469 54.023438 C 11.433594 54.023438 12.601562 54.023438 13.886719 54.023438 Z M 26.890625 14.179688 C 23.328125 14.179688 19.769531 14.179688 16.207031 14.179688 C 16.207031 14.839844 16.207031 15.433594 16.207031 16.019531 C 20.152344 16.019531 24.0625 16.019531 27.972656 16.019531 C 27.972656 15.394531 27.972656 14.800781 27.972656 14.179688 C 27.625 14.179688 27.316406 14.179688 26.890625 14.179688 Z M 27.082031 11.40625 C 27.082031 9.339844 27.085938 7.269531 27.078125 5.199219 C 27.078125 4.992188 27.097656 4.695312 26.976562 4.589844 C 26.417969 4.101562 25.8125 3.660156 25.085938 3.097656 C 25.085938 3.507812 25.085938 3.71875 25.085938 3.925781 C 25.085938 6.191406 25.074219 8.453125 25.089844 10.714844 C 25.101562 12.296875 24.824219 12.050781 26.503906 12.085938 C 26.925781 12.097656 27.132812 11.957031 27.082031 11.40625 Z M 19.105469 8.175781 C 19.074219 7.945312 19.128906 7.644531 19.003906 7.5 C 18.445312 6.871094 17.832031 6.285156 17.242188 5.683594 C 17.199219 5.710938 17.152344 5.738281 17.109375 5.765625 C 17.109375 5.953125 17.109375 6.144531 17.109375 6.335938 C 17.109375 7.800781 17.097656 9.265625 17.113281 10.730469 C 17.132812 12.292969 16.832031 12.050781 18.539062 12.085938 C 18.972656 12.097656 19.121094 11.9375 19.113281 11.507812 C 19.089844 10.433594 19.105469 9.359375 19.105469 8.175781 Z M 19.105469 8.175781 "/>
<path style=" stroke:none;fill-rule:nonzero;fill:rgb(60.392157%,78.823529%,100%);fill-opacity:1;" d="M 30.117188 19.457031 C 30.117188 29.433594 30.117188 39.351562 30.117188 49.269531 C 30.117188 50.144531 30.117188 50.148438 29.214844 50.148438 C 24.429688 50.148438 19.648438 50.148438 14.863281 50.144531 C 14.089844 50.144531 14.078125 50.132812 14.078125 49.359375 C 14.074219 39.207031 14.082031 29.054688 14.0625 18.902344 C 14.0625 18.316406 14.21875 18.136719 14.820312 18.140625 C 19.601562 18.164062 24.386719 18.152344 29.167969 18.152344 C 30.117188 18.152344 30.117188 18.152344 30.117188 19.105469 C 30.117188 19.203125 30.117188 19.300781 30.117188 19.457031 Z M 26.890625 26.128906 C 28.3125 26.105469 28.078125 26.328125 28.136719 24.882812 C 28.160156 24.289062 27.976562 24.117188 27.382812 24.121094 C 24.0625 24.148438 20.746094 24.128906 17.425781 24.136719 C 15.976562 24.140625 16.199219 23.9375 16.148438 25.414062 C 16.128906 25.984375 16.316406 26.144531 16.878906 26.140625 C 20.175781 26.117188 23.476562 26.128906 26.890625 26.128906 Z M 26.773438 30.117188 C 23.652344 30.117188 20.527344 30.109375 17.402344 30.121094 C 15.984375 30.125 16.199219 29.921875 16.148438 31.359375 C 16.125 31.945312 16.296875 32.128906 16.898438 32.121094 C 20.394531 32.097656 23.886719 32.097656 27.382812 32.121094 C 27.976562 32.128906 28.160156 31.957031 28.136719 31.363281 C 28.078125 29.917969 28.316406 30.140625 26.773438 30.117188 Z M 22.441406 36.097656 C 20.761719 36.097656 19.085938 36.089844 17.40625 36.101562 C 15.984375 36.109375 16.199219 35.910156 16.148438 37.339844 C 16.125 37.925781 16.296875 38.113281 16.898438 38.105469 C 20.179688 38.078125 23.457031 38.105469 26.734375 38.089844 C 28.351562 38.082031 28.082031 38.355469 28.132812 36.703125 C 28.148438 36.191406 27.9375 36.085938 27.476562 36.089844 C 25.835938 36.109375 24.199219 36.097656 22.441406 36.097656 Z M 18.105469 42.082031 C 17.871094 42.082031 17.636719 42.078125 17.402344 42.082031 C 15.980469 42.097656 16.199219 41.902344 16.148438 43.324219 C 16.125 43.917969 16.308594 44.09375 16.90625 44.089844 C 20.222656 44.0625 23.539062 44.082031 26.855469 44.074219 C 28.316406 44.070312 28.082031 44.273438 28.136719 42.800781 C 28.15625 42.238281 27.980469 42.066406 27.414062 42.070312 C 24.351562 42.09375 21.285156 42.082031 18.105469 42.082031 Z M 18.105469 42.082031 "/>
<path style=" stroke:none;fill-rule:nonzero;fill:rgb(60.392157%,78.823529%,100%);fill-opacity:1;" d="M 40.078125 50.148438 C 37.617188 50.148438 35.21875 50.136719 32.816406 50.15625 C 32.3125 50.160156 32.097656 50.054688 32.097656 49.484375 C 32.113281 40.113281 32.109375 30.742188 32.109375 21.375 C 32.109375 21.183594 32.132812 20.996094 32.152344 20.6875 C 32.773438 20.941406 33.304688 21.152344 33.832031 21.382812 C 37.734375 23.078125 41.628906 24.78125 45.539062 26.460938 C 45.996094 26.65625 46.171875 26.910156 46.167969 27.421875 C 46.152344 34.722656 46.160156 42.023438 46.15625 49.324219 C 46.15625 50.144531 46.15625 50.144531 45.347656 50.144531 C 43.613281 50.148438 41.875 50.148438 40.078125 50.148438 Z M 41.074219 32.109375 C 41.640625 32.109375 42.207031 32.117188 42.773438 32.109375 C 44.269531 32.085938 44.039062 32.332031 44.085938 30.8125 C 44.101562 30.28125 43.945312 30.101562 43.394531 30.105469 C 40.742188 30.132812 38.085938 30.117188 35.433594 30.117188 C 34.089844 30.117188 34.113281 30.117188 34.09375 31.445312 C 34.085938 31.949219 34.222656 32.128906 34.75 32.121094 C 36.820312 32.09375 38.886719 32.109375 41.074219 32.109375 Z M 34.332031 38.070312 C 37.140625 38.078125 39.953125 38.097656 42.761719 38.089844 C 44.273438 38.085938 44.035156 38.324219 44.085938 36.742188 C 44.101562 36.207031 43.894531 36.082031 43.402344 36.089844 C 41.566406 36.113281 39.730469 36.097656 37.898438 36.097656 C 36.804688 36.097656 35.710938 36.085938 34.617188 36.113281 C 34.449219 36.117188 34.144531 36.277344 34.140625 36.371094 C 34.132812 36.925781 34.195312 37.480469 34.332031 38.070312 Z M 43.722656 42.085938 C 42.589844 42.085938 41.460938 42.082031 40.328125 42.082031 C 38.433594 42.082031 36.542969 42.09375 34.648438 42.074219 C 34.191406 42.070312 34.011719 42.28125 34.117188 42.671875 C 34.246094 43.140625 33.675781 44.015625 34.546875 44.042969 C 37.566406 44.128906 40.59375 44.074219 43.617188 44.078125 C 43.9375 44.078125 44.085938 43.941406 44.078125 43.621094 C 44.066406 43.25 44.097656 42.878906 44.0625 42.511719 C 44.050781 42.367188 43.910156 42.238281 43.722656 42.085938 Z M 43.722656 42.085938 "/>
<path style=" stroke:none;fill-rule:nonzero;fill:rgb(60.784314%,78.823529%,100%);fill-opacity:1;" d="M 48.75 56.128906 C 49.746094 56.128906 50.683594 56.140625 51.621094 56.125 C 51.992188 56.117188 52.152344 56.246094 52.144531 56.632812 C 52.109375 58.453125 52.367188 58.117188 50.738281 58.117188 C 36.835938 58.128906 22.929688 58.125 9.023438 58.125 C 8.09375 58.125 8.089844 58.125 8.09375 57.214844 C 8.101562 55.984375 7.972656 56.132812 9.203125 56.132812 C 22.363281 56.128906 35.527344 56.128906 48.75 56.128906 Z M 48.75 56.128906 "/>
<path style=" stroke:none;fill-rule:nonzero;fill:rgb(60%,78.431373%,100%);fill-opacity:1;" d="M 27.082031 11.460938 C 27.132812 11.957031 26.925781 12.097656 26.503906 12.085938 C 24.824219 12.050781 25.101562 12.296875 25.089844 10.714844 C 25.074219 8.453125 25.085938 6.191406 25.085938 3.925781 C 25.085938 3.71875 25.085938 3.507812 25.085938 3.097656 C 25.8125 3.660156 26.417969 4.101562 26.976562 4.589844 C 27.097656 4.695312 27.078125 4.992188 27.078125 5.199219 C 27.085938 7.269531 27.082031 9.339844 27.082031 11.460938 Z M 27.082031 11.460938 "/>
<path style=" stroke:none;fill-rule:nonzero;fill:rgb(60.784314%,78.823529%,100%);fill-opacity:1;" d="M 19.105469 8.230469 C 19.105469 9.359375 19.089844 10.433594 19.113281 11.507812 C 19.121094 11.9375 18.972656 12.097656 18.539062 12.085938 C 16.832031 12.050781 17.132812 12.292969 17.113281 10.730469 C 17.097656 9.265625 17.109375 7.800781 17.109375 6.335938 C 17.109375 6.144531 17.109375 5.953125 17.109375 5.765625 C 17.152344 5.738281 17.199219 5.710938 17.242188 5.683594 C 17.832031 6.285156 18.445312 6.871094 19.003906 7.5 C 19.128906 7.644531 19.074219 7.945312 19.105469 8.230469 Z M 19.105469 8.230469 "/>
<path style=" stroke:none;fill-rule:nonzero;fill:rgb(34.509804%,64.313725%,100%);fill-opacity:1;" d="M 26.832031 26.128906 C 23.476562 26.128906 20.175781 26.117188 16.878906 26.140625 C 16.316406 26.144531 16.128906 25.984375 16.148438 25.414062 C 16.199219 23.9375 15.976562 24.140625 17.425781 24.136719 C 20.746094 24.128906 24.0625 24.148438 27.382812 24.121094 C 27.976562 24.117188 28.160156 24.289062 28.136719 24.882812 C 28.078125 26.328125 28.3125 26.105469 26.832031 26.128906 Z M 26.832031 26.128906 "/>
<path style=" stroke:none;fill-rule:nonzero;fill:rgb(34.117647%,64.313725%,100%);fill-opacity:1;" d="M 26.832031 30.117188 C 28.316406 30.140625 28.078125 29.917969 28.136719 31.363281 C 28.160156 31.957031 27.976562 32.128906 27.382812 32.121094 C 23.886719 32.097656 20.394531 32.097656 16.898438 32.121094 C 16.296875 32.128906 16.125 31.945312 16.148438 31.359375 C 16.199219 29.921875 15.984375 30.125 17.402344 30.121094 C 20.527344 30.109375 23.652344 30.117188 26.832031 30.117188 Z M 26.832031 30.117188 "/>
<path style=" stroke:none;fill-rule:nonzero;fill:rgb(34.509804%,64.313725%,100%);fill-opacity:1;" d="M 22.5 36.097656 C 24.199219 36.097656 25.835938 36.109375 27.476562 36.089844 C 27.9375 36.085938 28.148438 36.191406 28.132812 36.703125 C 28.082031 38.355469 28.351562 38.082031 26.734375 38.089844 C 23.457031 38.105469 20.179688 38.078125 16.898438 38.105469 C 16.296875 38.113281 16.125 37.925781 16.148438 37.339844 C 16.199219 35.910156 15.984375 36.109375 17.40625 36.101562 C 19.085938 36.089844 20.761719 36.097656 22.5 36.097656 Z M 22.5 36.097656 "/>
<path style=" stroke:none;fill-rule:nonzero;fill:rgb(34.901961%,64.705882%,100%);fill-opacity:1;" d="M 18.164062 42.082031 C 21.285156 42.082031 24.351562 42.09375 27.414062 42.070312 C 27.980469 42.066406 28.15625 42.238281 28.136719 42.800781 C 28.082031 44.273438 28.316406 44.070312 26.855469 44.074219 C 23.539062 44.082031 20.222656 44.0625 16.90625 44.089844 C 16.308594 44.09375 16.125 43.917969 16.148438 43.324219 C 16.199219 41.902344 15.980469 42.097656 17.402344 42.082031 C 17.636719 42.078125 17.871094 42.082031 18.164062 42.082031 Z M 18.164062 42.082031 "/>
<path style=" stroke:none;fill-rule:nonzero;fill:rgb(34.117647%,64.313725%,100%);fill-opacity:1;" d="M 41.015625 32.109375 C 38.886719 32.109375 36.820312 32.09375 34.75 32.121094 C 34.222656 32.128906 34.085938 31.949219 34.09375 31.445312 C 34.113281 30.117188 34.089844 30.117188 35.433594 30.117188 C 38.085938 30.117188 40.742188 30.132812 43.394531 30.105469 C 43.945312 30.101562 44.101562 30.28125 44.085938 30.8125 C 44.039062 32.332031 44.269531 32.085938 42.773438 32.109375 C 42.207031 32.117188 41.640625 32.109375 41.015625 32.109375 Z M 41.015625 32.109375 "/>
<path style=" stroke:none;fill-rule:nonzero;fill:rgb(34.509804%,64.313725%,100%);fill-opacity:1;" d="M 34.28125 38.054688 C 34.195312 37.480469 34.132812 36.925781 34.140625 36.371094 C 34.144531 36.277344 34.449219 36.117188 34.617188 36.113281 C 35.710938 36.085938 36.804688 36.097656 37.898438 36.097656 C 39.730469 36.097656 41.566406 36.113281 43.402344 36.089844 C 43.894531 36.082031 44.101562 36.207031 44.085938 36.742188 C 44.035156 38.324219 44.273438 38.085938 42.761719 38.089844 C 39.953125 38.097656 37.140625 38.078125 34.28125 38.054688 Z M 34.28125 38.054688 "/>
<path style=" stroke:none;fill-rule:nonzero;fill:rgb(34.901961%,64.705882%,100%);fill-opacity:1;" d="M 43.777344 42.09375 C 43.910156 42.238281 44.050781 42.367188 44.0625 42.511719 C 44.097656 42.878906 44.066406 43.25 44.078125 43.621094 C 44.085938 43.941406 43.9375 44.078125 43.617188 44.078125 C 40.59375 44.074219 37.566406 44.128906 34.546875 44.042969 C 33.675781 44.015625 34.246094 43.140625 34.117188 42.671875 C 34.011719 42.28125 34.191406 42.070312 34.648438 42.074219 C 36.542969 42.09375 38.433594 42.082031 40.328125 42.082031 C 41.460938 42.082031 42.589844 42.085938 43.777344 42.09375 Z M 43.777344 42.09375 "/>
</g>
</svg>
