<?xml version="1.0" encoding="UTF-8"?>
<svg xmlns="http://www.w3.org/2000/svg" xmlns:xlink="http://www.w3.org/1999/xlink" width="60px" height="60px" viewBox="0 0 60 60" version="1.1">
<g id="surface1">
<path style=" stroke:none;fill-rule:nonzero;fill:rgb(34.117647%,64.313725%,100%);fill-opacity:1;" d="M 35.570312 0.117188 C 36.144531 0.585938 36.238281 1.183594 36.21875 1.851562 C 36.1875 3 36.210938 4.148438 36.210938 5.414062 C 36.445312 5.191406 36.613281 5.042969 36.769531 4.886719 C 37.585938 4.074219 38.394531 3.253906 39.21875 2.445312 C 39.695312 1.980469 40.320312 1.949219 40.773438 2.402344 C 43.144531 4.753906 45.507812 7.117188 47.859375 9.488281 C 48.347656 9.980469 48.226562 10.640625 47.570312 11.3125 C 46.832031 12.066406 46.078125 12.804688 45.335938 13.550781 C 45.199219 13.6875 45.070312 13.828125 44.851562 14.0625 C 46.175781 14.0625 47.394531 14.101562 48.609375 14.050781 C 49.773438 14.003906 50.1875 14.429688 50.171875 15.628906 C 50.128906 18.753906 50.15625 21.878906 50.15625 25.003906 C 50.15625 25.816406 49.84375 26.132812 49.039062 26.132812 C 47.640625 26.132812 46.246094 26.132812 44.707031 26.132812 C 45.753906 27.179688 46.675781 28.152344 47.65625 29.0625 C 48.257812 29.621094 48.273438 30.339844 47.644531 30.949219 C 45.394531 33.148438 43.15625 35.359375 40.984375 37.628906 C 40.375 38.265625 39.484375 38.167969 38.960938 37.621094 C 38.097656 36.71875 37.207031 35.847656 36.210938 34.84375 C 36.210938 36.1875 36.21875 37.382812 36.207031 38.582031 C 36.203125 38.847656 36.144531 39.113281 36.101562 39.375 C 36.003906 39.964844 35.566406 40.183594 35.058594 40.1875 C 31.757812 40.203125 28.457031 40.203125 25.15625 40.1875 C 24.460938 40.1875 24.035156 39.65625 24.027344 38.851562 C 24.015625 37.757812 24.023438 36.664062 24.023438 35.570312 C 24.023438 35.382812 24.023438 35.195312 24.023438 34.824219 C 23.09375 35.769531 22.25 36.574219 21.46875 37.433594 C 20.652344 38.320312 19.796875 38.296875 18.949219 37.425781 C 16.90625 35.324219 14.808594 33.277344 12.746094 31.195312 C 12.332031 30.777344 11.886719 30.320312 12.1875 29.632812 C 12.269531 29.445312 12.398438 29.269531 12.542969 29.125 C 13.5 28.15625 14.46875 27.203125 15.542969 26.132812 C 14.03125 26.132812 12.675781 26.132812 11.320312 26.132812 C 10.351562 26.132812 10.078125 25.859375 10.078125 24.890625 C 10.078125 21.667969 10.078125 18.445312 10.078125 15.222656 C 10.078125 14.453125 10.464844 14.066406 11.25 14.0625 C 12.589844 14.058594 13.929688 14.0625 15.429688 14.0625 C 14.4375 13.078125 13.546875 12.21875 12.683594 11.324219 C 12.28125 10.910156 11.894531 10.445312 12.191406 9.796875 C 12.269531 9.628906 12.390625 9.46875 12.523438 9.335938 C 14.785156 7.066406 17.050781 4.800781 19.316406 2.539062 C 19.941406 1.917969 20.492188 1.921875 21.125 2.554688 C 22.039062 3.460938 22.953125 4.371094 23.867188 5.28125 C 23.890625 5.300781 23.933594 5.296875 24.023438 5.316406 C 24.023438 4.0625 24.035156 2.824219 24.015625 1.582031 C 24.007812 1.027344 24.132812 0.550781 24.597656 0.15625 C 28.246094 0.117188 31.878906 0.117188 35.570312 0.117188 Z M 12.078125 16.832031 C 12.078125 19.246094 12.078125 21.660156 12.078125 24.136719 C 12.371094 24.136719 12.582031 24.136719 12.792969 24.136719 C 14.121094 24.136719 15.449219 24.164062 16.773438 24.125 C 17.4375 24.109375 17.824219 24.347656 18.074219 24.960938 C 18.351562 25.632812 18.414062 26.207031 17.828125 26.769531 C 16.882812 27.671875 15.972656 28.613281 15.050781 29.539062 C 14.902344 29.683594 14.769531 29.84375 14.671875 29.949219 C 16.566406 31.84375 18.410156 33.6875 20.273438 35.554688 C 20.378906 35.457031 20.523438 35.324219 20.660156 35.191406 C 21.585938 34.265625 22.53125 33.359375 23.429688 32.40625 C 24.003906 31.800781 24.597656 31.847656 25.277344 32.152344 C 25.917969 32.441406 26.128906 32.742188 26.128906 33.523438 C 26.132812 34.417969 26.128906 35.316406 26.128906 36.214844 C 26.128906 36.816406 26.128906 37.414062 26.128906 38.035156 C 28.824219 38.035156 31.441406 38.035156 34.101562 38.035156 C 34.101562 36.480469 34.109375 34.980469 34.097656 33.480469 C 34.09375 32.84375 34.328125 32.40625 34.9375 32.15625 C 35.59375 31.890625 36.191406 31.75 36.75 32.359375 C 37.199219 32.847656 37.6875 33.296875 38.152344 33.769531 C 38.765625 34.390625 39.371094 35.015625 39.898438 35.558594 C 41.816406 33.636719 43.664062 31.792969 45.53125 29.921875 C 45.492188 29.875 45.414062 29.769531 45.320312 29.675781 C 44.328125 28.679688 43.34375 27.675781 42.335938 26.695312 C 41.710938 26.085938 41.957031 25.460938 42.210938 24.8125 C 42.425781 24.269531 42.832031 24.121094 43.375 24.132812 C 44.46875 24.152344 45.5625 24.136719 46.65625 24.136719 C 47.136719 24.136719 47.617188 24.136719 48.078125 24.136719 C 48.121094 23.996094 48.148438 23.941406 48.148438 23.886719 C 48.152344 21.445312 48.148438 19.003906 48.160156 16.5625 C 48.164062 16.195312 47.972656 16.160156 47.683594 16.160156 C 46.296875 16.167969 44.910156 16.171875 43.523438 16.160156 C 42.863281 16.15625 42.375 15.886719 42.121094 15.222656 C 41.871094 14.566406 41.847656 13.980469 42.390625 13.453125 C 42.773438 13.089844 43.136719 12.707031 43.511719 12.339844 C 44.21875 11.644531 44.921875 10.949219 45.554688 10.328125 C 43.636719 8.402344 41.785156 6.542969 39.914062 4.667969 C 38.855469 5.726562 37.742188 6.816406 36.65625 7.9375 C 36.082031 8.53125 35.496094 8.316406 34.886719 8.054688 C 34.367188 7.835938 34.089844 7.472656 34.097656 6.882812 C 34.113281 5.515625 34.105469 4.148438 34.101562 2.78125 C 34.101562 2.574219 34.082031 2.367188 34.070312 2.152344 C 31.40625 2.152344 28.800781 2.152344 26.128906 2.152344 C 26.128906 2.402344 26.128906 2.613281 26.128906 2.824219 C 26.128906 4.113281 26.109375 5.402344 26.140625 6.6875 C 26.152344 7.324219 25.976562 7.792969 25.363281 8.050781 C 24.34375 8.480469 24.097656 8.449219 23.429688 7.78125 C 22.367188 6.71875 21.308594 5.65625 20.25 4.597656 C 18.328125 6.453125 16.441406 8.28125 14.515625 10.140625 C 15.371094 10.992188 16.132812 11.691406 16.824219 12.457031 C 17.527344 13.230469 18.742188 13.769531 18.121094 15.207031 C 17.523438 16.59375 16.324219 16.082031 15.324219 16.152344 C 14.429688 16.214844 13.527344 16.1875 12.628906 16.15625 C 12.1875 16.140625 12.011719 16.289062 12.078125 16.832031 Z M 12.078125 16.832031 "/>
<path style=" stroke:none;fill-rule:nonzero;fill:rgb(34.117647%,64.313725%,100%);fill-opacity:1;" d="M 23.960938 60.117188 C 22.652344 59.375 21.402344 58.625 20.144531 57.890625 C 18.246094 56.78125 16.347656 55.683594 14.449219 54.585938 C 12.5625 53.5 10.671875 52.421875 8.792969 51.328125 C 6.601562 50.046875 4.378906 48.808594 2.242188 47.445312 C 0.269531 46.1875 0.179688 42.835938 1.910156 41.25 C 3.417969 39.867188 5.058594 39.746094 6.835938 40.519531 C 9.976562 41.890625 13.105469 43.289062 16.238281 44.671875 C 19.601562 46.160156 22.960938 47.648438 26.324219 49.128906 C 27.785156 49.773438 29.253906 50.402344 30.714844 51.046875 C 31.386719 51.339844 31.6875 51.96875 31.445312 52.523438 C 31.175781 53.144531 30.527344 53.371094 29.835938 53.066406 C 26.996094 51.824219 24.15625 50.589844 21.324219 49.332031 C 17.542969 47.652344 13.769531 45.949219 9.992188 44.257812 C 8.585938 43.628906 7.171875 43.015625 5.773438 42.378906 C 4.671875 41.878906 3.636719 42.292969 3.066406 43.207031 C 2.519531 44.082031 2.800781 45.347656 3.714844 45.914062 C 4.90625 46.65625 6.136719 47.335938 7.351562 48.039062 C 9.269531 49.148438 11.183594 50.253906 13.101562 51.359375 C 14.9375 52.417969 16.769531 53.476562 18.605469 54.53125 C 20.523438 55.636719 22.441406 56.738281 24.371094 57.824219 C 24.589844 57.949219 24.878906 58 25.132812 58 C 31.886719 58.007812 38.644531 58.007812 45.398438 58.007812 C 45.554688 58.007812 45.714844 57.996094 45.867188 58.011719 C 46.378906 58.066406 46.894531 58.183594 47.089844 58.722656 C 47.277344 59.238281 47.113281 59.699219 46.652344 60.078125 C 39.097656 60.117188 31.558594 60.117188 23.960938 60.117188 Z M 23.960938 60.117188 "/>
<path style=" stroke:none;fill-rule:nonzero;fill:rgb(34.117647%,64.313725%,100%);fill-opacity:1;" d="M 60.117188 53.03125 C 59.773438 53.527344 59.335938 53.789062 58.769531 53.632812 C 58.214844 53.484375 58.039062 52.972656 58.023438 52.5 C 57.945312 50.214844 56.875 48.472656 55.183594 47.035156 C 54.367188 46.34375 53.511719 45.722656 52.460938 45.460938 C 51.828125 45.304688 51.179688 45.136719 50.539062 45.132812 C 44.933594 45.105469 39.332031 45.117188 33.726562 45.121094 C 33.441406 45.121094 33.140625 45.152344 32.875 45.25 C 32.503906 45.386719 32.210938 45.628906 32.222656 46.097656 C 32.238281 46.605469 32.226562 47.113281 32.226562 47.621094 C 32.226562 48.792969 32.542969 49.101562 33.75 49.101562 C 36.445312 49.101562 39.140625 49.101562 41.835938 49.101562 C 42.871094 49.101562 43.90625 49.101562 44.941406 49.101562 C 45.683594 49.101562 46.097656 49.414062 46.171875 50.027344 C 46.238281 50.597656 45.957031 50.941406 45.234375 51.144531 C 45.070312 51.191406 44.894531 51.207031 44.722656 51.207031 C 40.914062 51.210938 37.109375 51.234375 33.300781 51.199219 C 31.78125 51.183594 30.578125 50.453125 30.207031 49.007812 C 29.882812 47.742188 29.871094 46.4375 30.226562 45.171875 C 30.5625 43.960938 31.519531 43.210938 32.75 43.128906 C 33.640625 43.066406 34.535156 43.015625 35.425781 43.011719 C 40.246094 43 45.070312 43.027344 49.894531 43 C 52.144531 42.984375 54.203125 43.503906 56.015625 44.878906 C 58.011719 46.390625 59.324219 48.355469 59.988281 50.761719 C 60.03125 50.925781 60.019531 51.105469 60.078125 51.304688 C 60.117188 51.878906 60.117188 52.425781 60.117188 53.03125 Z M 60.117188 53.03125 "/>
<path style=" stroke:none;fill-rule:nonzero;fill:rgb(34.117647%,64.313725%,100%);fill-opacity:1;" d="M 60.117188 22.679688 C 60.039062 23.179688 59.941406 23.621094 59.886719 24.070312 C 59.574219 26.761719 58.863281 29.347656 57.78125 31.828125 C 57.390625 32.730469 56.941406 33.605469 56.515625 34.496094 C 56.277344 34.988281 55.882812 35.207031 55.335938 35.15625 C 54.574219 35.082031 54.265625 34.273438 54.640625 33.433594 C 55.34375 31.855469 56.117188 30.300781 56.691406 28.675781 C 57.359375 26.769531 57.789062 24.789062 57.886719 22.757812 C 57.957031 21.222656 58.078125 19.679688 57.980469 18.152344 C 57.851562 16.101562 57.511719 14.066406 56.859375 12.101562 C 56.765625 11.8125 56.753906 11.496094 56.71875 11.191406 C 56.660156 10.664062 56.921875 10.316406 57.410156 10.207031 C 58.0625 10.0625 58.558594 10.304688 58.703125 10.871094 C 59.085938 12.335938 59.441406 13.808594 59.753906 15.289062 C 59.910156 16.023438 59.945312 16.78125 60.074219 17.550781 C 60.117188 19.261719 60.117188 20.941406 60.117188 22.679688 Z M 60.117188 22.679688 "/>
<path style=" stroke:none;fill-rule:nonzero;fill:rgb(34.117647%,64.313725%,100%);fill-opacity:1;" d="M 0.117188 17.632812 C 0.195312 17.054688 0.246094 16.527344 0.355469 16.011719 C 0.734375 14.273438 1.113281 12.53125 1.542969 10.800781 C 1.671875 10.273438 2.1875 10.0625 2.804688 10.203125 C 3.292969 10.3125 3.601562 10.648438 3.507812 11.167969 C 3.34375 12.050781 3.128906 12.925781 2.921875 13.800781 C 2.464844 15.722656 2.25 17.664062 2.210938 19.644531 C 2.148438 22.960938 2.640625 26.179688 3.757812 29.292969 C 4.222656 30.589844 4.847656 31.828125 5.402344 33.089844 C 5.480469 33.265625 5.570312 33.4375 5.628906 33.621094 C 5.886719 34.386719 5.71875 34.808594 5.066406 35.074219 C 4.511719 35.300781 3.988281 35.101562 3.703125 34.457031 C 2.957031 32.773438 2.175781 31.097656 1.546875 29.371094 C 0.769531 27.253906 0.359375 25.039062 0.160156 22.761719 C 0.117188 21.050781 0.117188 19.371094 0.117188 17.632812 Z M 0.117188 17.632812 "/>
<path style=" stroke:none;fill-rule:nonzero;fill:rgb(34.117647%,64.313725%,100%);fill-opacity:1;" d="M 7.273438 22.457031 C 7.4375 23.417969 7.535156 24.34375 7.769531 25.230469 C 8.070312 26.398438 8.476562 27.539062 8.835938 28.691406 C 9.058594 29.421875 8.828125 29.867188 8.199219 30.136719 C 7.648438 30.375 7.046875 30.027344 6.792969 29.335938 C 6.039062 27.308594 5.433594 25.25 5.273438 23.085938 C 5.179688 21.832031 5.007812 20.570312 5.0625 19.320312 C 5.1875 16.324219 5.773438 13.414062 6.917969 10.621094 C 7.605469 8.9375 8.464844 7.351562 9.496094 5.859375 C 9.753906 5.488281 10.015625 5.097656 10.574219 5.117188 C 11.617188 5.15625 11.828125 6.039062 11.464844 6.710938 C 11.011719 7.535156 10.496094 8.328125 10.015625 9.140625 C 8.921875 10.996094 8.164062 13 7.765625 15.097656 C 7.429688 16.871094 7.316406 18.6875 7.164062 20.492188 C 7.109375 21.121094 7.226562 21.765625 7.273438 22.457031 Z M 7.273438 22.457031 "/>
<path style=" stroke:none;fill-rule:nonzero;fill:rgb(34.117647%,64.313725%,100%);fill-opacity:1;" d="M 50.019531 5.160156 C 50.707031 6.070312 51.429688 6.929688 51.976562 7.890625 C 53.144531 9.960938 54.0625 12.144531 54.515625 14.488281 C 54.765625 15.789062 54.914062 17.109375 55.070312 18.425781 C 55.15625 19.152344 55.222656 19.898438 55.183594 20.628906 C 55.058594 22.953125 54.816406 25.269531 54.042969 27.492188 C 53.8125 28.160156 53.601562 28.839844 53.320312 29.488281 C 53.007812 30.21875 52.578125 30.375 51.898438 30.105469 C 51.386719 29.90625 51.195312 29.367188 51.398438 28.6875 C 51.78125 27.421875 52.222656 26.167969 52.515625 24.882812 C 52.757812 23.820312 52.871094 22.71875 52.953125 21.628906 C 53.023438 20.710938 52.980469 19.785156 52.964844 18.863281 C 52.925781 16.371094 52.40625 13.960938 51.410156 11.691406 C 50.683594 10.046875 49.742188 8.496094 48.855469 6.921875 C 48.605469 6.476562 48.511719 6.035156 48.734375 5.617188 C 48.980469 5.140625 49.460938 5.042969 50.019531 5.160156 Z M 50.019531 5.160156 "/>
<path style=" stroke:none;fill-rule:nonzero;fill:rgb(34.117647%,64.313725%,100%);fill-opacity:1;" d="M 51.914062 32.027344 C 51.59375 32.738281 51.296875 33.414062 50.941406 34.058594 C 50.75 34.40625 50.511719 34.78125 50.195312 34.988281 C 49.828125 35.230469 49.339844 35.292969 48.953125 34.9375 C 48.542969 34.5625 48.492188 34.058594 48.730469 33.609375 C 49.128906 32.863281 49.5625 32.132812 50.070312 31.457031 C 50.621094 30.722656 51.574219 31.015625 51.914062 32.027344 Z M 51.914062 32.027344 "/>
<path style=" stroke:none;fill-rule:nonzero;fill:rgb(34.117647%,64.313725%,100%);fill-opacity:1;" d="M 10.863281 32.503906 C 11.125 33.050781 11.425781 33.546875 11.582031 34.082031 C 11.710938 34.53125 11.476562 34.929688 11.007812 35.089844 C 10.527344 35.257812 10.046875 35.160156 9.757812 34.753906 C 9.265625 34.070312 8.820312 33.34375 8.417969 32.605469 C 8.144531 32.105469 8.390625 31.433594 8.851562 31.199219 C 9.304688 30.964844 9.921875 31.152344 10.242188 31.617188 C 10.441406 31.902344 10.640625 32.183594 10.863281 32.503906 Z M 10.863281 32.503906 "/>
<path style=" stroke:none;fill-rule:nonzero;fill:rgb(34.117647%,64.313725%,100%);fill-opacity:1;" d="M 56.566406 5.78125 C 56.871094 6.390625 57.183594 6.949219 57.425781 7.535156 C 57.761719 8.355469 57.496094 9.324219 56.332031 9.117188 C 56.03125 9.0625 55.714844 8.75 55.535156 8.476562 C 55.1875 7.925781 54.921875 7.320312 54.632812 6.730469 C 54.34375 6.140625 54.507812 5.476562 54.996094 5.195312 C 55.515625 4.902344 56.175781 5.136719 56.566406 5.78125 Z M 56.566406 5.78125 "/>
<path style=" stroke:none;fill-rule:nonzero;fill:rgb(34.117647%,64.313725%,100%);fill-opacity:1;" d="M 5.285156 5.234375 C 5.820312 5.800781 5.886719 6.160156 5.578125 6.777344 C 5.296875 7.347656 5.011719 7.917969 4.714844 8.476562 C 4.382812 9.109375 3.796875 9.324219 3.21875 9.039062 C 2.703125 8.789062 2.515625 8.160156 2.800781 7.539062 C 3.054688 7 3.332031 6.46875 3.601562 5.9375 C 4.019531 5.097656 4.378906 4.9375 5.285156 5.234375 Z M 5.285156 5.234375 "/>
<path style=" stroke:none;fill-rule:nonzero;fill:rgb(60.784314%,78.823529%,100%);fill-opacity:1;" d="M 12.078125 16.777344 C 12.011719 16.289062 12.1875 16.140625 12.628906 16.15625 C 13.527344 16.1875 14.429688 16.214844 15.324219 16.152344 C 16.324219 16.082031 17.523438 16.59375 18.121094 15.207031 C 18.742188 13.769531 17.527344 13.230469 16.824219 12.457031 C 16.132812 11.691406 15.371094 10.992188 14.515625 10.140625 C 16.441406 8.28125 18.328125 6.453125 20.25 4.597656 C 21.308594 5.65625 22.367188 6.71875 23.429688 7.78125 C 24.097656 8.449219 24.34375 8.480469 25.363281 8.050781 C 25.976562 7.792969 26.152344 7.324219 26.140625 6.6875 C 26.109375 5.402344 26.128906 4.113281 26.128906 2.824219 C 26.128906 2.613281 26.128906 2.402344 26.128906 2.152344 C 28.800781 2.152344 31.40625 2.152344 34.070312 2.152344 C 34.082031 2.367188 34.101562 2.574219 34.101562 2.78125 C 34.105469 4.148438 34.113281 5.515625 34.097656 6.882812 C 34.089844 7.472656 34.367188 7.835938 34.886719 8.054688 C 35.496094 8.316406 36.082031 8.53125 36.65625 7.9375 C 37.742188 6.816406 38.855469 5.726562 39.914062 4.667969 C 41.785156 6.542969 43.636719 8.402344 45.554688 10.328125 C 44.921875 10.949219 44.21875 11.644531 43.511719 12.339844 C 43.136719 12.707031 42.773438 13.089844 42.390625 13.453125 C 41.847656 13.980469 41.871094 14.566406 42.121094 15.222656 C 42.375 15.886719 42.863281 16.15625 43.523438 16.160156 C 44.910156 16.171875 46.296875 16.167969 47.683594 16.160156 C 47.972656 16.160156 48.164062 16.195312 48.160156 16.5625 C 48.148438 19.003906 48.152344 21.445312 48.148438 23.886719 C 48.148438 23.941406 48.121094 23.996094 48.078125 24.136719 C 47.617188 24.136719 47.136719 24.136719 46.65625 24.136719 C 45.5625 24.136719 44.46875 24.152344 43.375 24.132812 C 42.832031 24.121094 42.425781 24.269531 42.210938 24.8125 C 41.957031 25.460938 41.710938 26.085938 42.335938 26.695312 C 43.34375 27.675781 44.328125 28.679688 45.320312 29.675781 C 45.414062 29.769531 45.492188 29.875 45.53125 29.921875 C 43.664062 31.792969 41.816406 33.636719 39.898438 35.558594 C 39.371094 35.015625 38.765625 34.390625 38.152344 33.769531 C 37.6875 33.296875 37.199219 32.847656 36.75 32.359375 C 36.191406 31.75 35.59375 31.890625 34.9375 32.15625 C 34.328125 32.40625 34.09375 32.84375 34.097656 33.480469 C 34.109375 34.980469 34.101562 36.480469 34.101562 38.035156 C 31.441406 38.035156 28.824219 38.035156 26.128906 38.035156 C 26.128906 37.414062 26.128906 36.816406 26.128906 36.214844 C 26.128906 35.316406 26.132812 34.417969 26.128906 33.523438 C 26.128906 32.742188 25.917969 32.441406 25.28125 32.152344 C 24.597656 31.847656 24.003906 31.800781 23.429688 32.40625 C 22.53125 33.359375 21.585938 34.265625 20.660156 35.191406 C 20.523438 35.324219 20.378906 35.457031 20.277344 35.554688 C 18.410156 33.6875 16.566406 31.84375 14.671875 29.949219 C 14.769531 29.84375 14.902344 29.683594 15.050781 29.539062 C 15.972656 28.613281 16.882812 27.671875 17.828125 26.769531 C 18.414062 26.207031 18.351562 25.632812 18.074219 24.960938 C 17.824219 24.347656 17.4375 24.109375 16.773438 24.125 C 15.449219 24.164062 14.121094 24.136719 12.792969 24.136719 C 12.582031 24.136719 12.371094 24.136719 12.078125 24.136719 C 12.078125 21.660156 12.078125 19.246094 12.078125 16.777344 Z M 29.84375 29.179688 C 30.210938 29.140625 30.574219 29.105469 30.941406 29.066406 C 33.464844 28.808594 35.527344 27.699219 37.140625 25.734375 C 38.878906 23.617188 39.304688 21.152344 38.953125 18.535156 C 38.6875 16.558594 37.710938 14.910156 36.238281 13.554688 C 33.972656 11.46875 31.296875 10.714844 28.304688 11.304688 C 23.714844 12.207031 20.441406 16.765625 21.207031 21.386719 C 21.628906 23.929688 22.847656 25.972656 24.949219 27.488281 C 26.382812 28.519531 28.027344 28.933594 29.84375 29.179688 Z M 29.84375 29.179688 "/>
<path style=" stroke:none;fill-rule:nonzero;fill:rgb(34.509804%,64.705882%,100%);fill-opacity:1;" d="M 29.792969 29.179688 C 28.027344 28.933594 26.382812 28.519531 24.949219 27.488281 C 22.847656 25.972656 21.628906 23.929688 21.207031 21.386719 C 20.441406 16.765625 23.714844 12.207031 28.304688 11.304688 C 31.296875 10.714844 33.972656 11.46875 36.238281 13.554688 C 37.710938 14.910156 38.6875 16.558594 38.953125 18.535156 C 39.304688 21.152344 38.878906 23.617188 37.140625 25.734375 C 35.527344 27.699219 33.464844 28.808594 30.941406 29.066406 C 30.574219 29.105469 30.210938 29.140625 29.792969 29.179688 Z M 27.660156 13.640625 C 26.554688 14 25.644531 14.667969 24.9375 15.554688 C 23.613281 17.226562 22.773438 19.023438 23.277344 21.289062 C 23.675781 23.078125 24.464844 24.585938 25.941406 25.609375 C 26.851562 26.242188 27.914062 26.765625 28.984375 27.015625 C 29.882812 27.226562 30.886719 27.179688 31.84375 26.851562 C 33.035156 26.445312 34.15625 25.925781 35.023438 25.023438 C 36.714844 23.261719 37.40625 21.136719 36.902344 18.738281 C 36.390625 16.296875 34.921875 14.578125 32.589844 13.652344 C 30.992188 13.019531 29.367188 13.042969 27.660156 13.640625 Z M 27.660156 13.640625 "/>
</g>
</svg>
