<?xml version="1.0" encoding="UTF-8"?>
<svg xmlns="http://www.w3.org/2000/svg" xmlns:xlink="http://www.w3.org/1999/xlink" width="60px" height="60px" viewBox="0 0 60 60" version="1.1">
<g id="surface1">
<path style=" stroke:none;fill-rule:nonzero;fill:rgb(34.509804%,64.313725%,100%);fill-opacity:1;" d="M 2.308594 34.613281 C 1.867188 32.335938 1.882812 30.074219 2.023438 27.835938 C 2.226562 24.667969 3.054688 21.621094 4.335938 18.703125 C 5.414062 16.238281 6.84375 13.996094 8.539062 11.929688 C 10.054688 10.089844 11.832031 8.519531 13.777344 7.136719 C 16.292969 5.351562 19.023438 4.011719 21.984375 3.132812 C 23.707031 2.621094 25.449219 2.199219 27.246094 2.117188 C 28.953125 2.039062 30.671875 1.90625 32.375 2.019531 C 35.25 2.21875 38.035156 2.914062 40.722656 3.992188 C 43.054688 4.929688 45.210938 6.171875 47.195312 7.679688 C 48.851562 8.9375 50.347656 10.386719 51.6875 11.996094 C 53.148438 13.75 54.425781 15.621094 55.414062 17.667969 C 56.613281 20.15625 57.445312 22.761719 57.917969 25.503906 C 58.316406 27.800781 58.347656 30.109375 58.207031 32.398438 C 58.007812 35.546875 57.191406 38.574219 55.914062 41.480469 C 54.933594 43.710938 53.726562 45.808594 52.183594 47.667969 C 50.957031 49.144531 49.523438 50.457031 48.113281 51.769531 C 46.425781 53.339844 44.457031 54.519531 42.382812 55.503906 C 39.953125 56.660156 37.414062 57.445312 34.753906 57.914062 C 32.457031 58.320312 30.148438 58.34375 27.859375 58.207031 C 24.804688 58.027344 21.867188 57.234375 19.035156 56.039062 C 16.683594 55.050781 14.519531 53.742188 12.53125 52.171875 C 10.390625 50.484375 8.578125 48.476562 6.996094 46.238281 C 4.863281 43.226562 3.5 39.898438 2.597656 36.355469 C 2.457031 35.804688 2.421875 35.222656 2.308594 34.613281 Z M 55.261719 22.613281 C 54.78125 21.355469 54.335938 20.085938 53.8125 18.847656 C 53.367188 17.796875 53.308594 17.785156 52.355469 18.378906 C 51.859375 18.6875 51.605469 18.664062 51.324219 18.121094 C 50.699219 16.914062 50.632812 17.199219 51.765625 16.554688 C 52.230469 16.292969 52.320312 16.101562 52.003906 15.632812 C 50.152344 12.902344 47.910156 10.566406 45.214844 8.667969 C 44.101562 7.882812 44.097656 7.890625 43.359375 9.046875 C 43.328125 9.09375 43.308594 9.175781 43.269531 9.191406 C 43.125 9.238281 42.949219 9.332031 42.832031 9.285156 C 41.523438 8.792969 41.464844 8.628906 42.132812 7.417969 C 42.144531 7.402344 42.152344 7.382812 42.164062 7.367188 C 42.402344 7.050781 42.300781 6.859375 41.964844 6.691406 C 38.980469 5.195312 35.832031 4.285156 32.507812 3.988281 C 32.0625 3.945312 31.425781 3.765625 31.21875 3.980469 C 30.972656 4.234375 31.070312 4.84375 31.0625 5.300781 C 31.054688 5.628906 30.933594 5.730469 30.609375 5.75 C 29.21875 5.816406 29.207031 5.828125 29.1875 4.410156 C 29.183594 4.003906 29.0625 3.859375 28.648438 3.886719 C 25.265625 4.132812 22.019531 4.910156 18.945312 6.359375 C 17.808594 6.898438 17.792969 6.914062 18.429688 7.980469 C 18.675781 8.390625 18.660156 8.609375 18.21875 8.847656 C 16.847656 9.597656 17.195312 9.582031 16.53125 8.417969 C 16.253906 7.933594 16.042969 7.957031 15.632812 8.234375 C 13.5 9.675781 11.585938 11.359375 9.953125 13.351562 C 9.230469 14.234375 8.578125 15.175781 7.851562 16.15625 C 8.34375 16.449219 8.738281 16.660156 9.097656 16.917969 C 9.214844 17.003906 9.351562 17.261719 9.304688 17.355469 C 9.089844 17.789062 8.886719 18.292969 8.523438 18.558594 C 8.363281 18.675781 7.832031 18.277344 7.46875 18.113281 C 7.449219 18.105469 7.433594 18.09375 7.417969 18.085938 C 7.097656 17.855469 6.878906 17.890625 6.6875 18.277344 C 5.203125 21.242188 4.296875 24.375 3.988281 27.675781 C 3.945312 28.136719 3.765625 28.757812 3.988281 29.023438 C 4.191406 29.273438 4.855469 29.117188 5.304688 29.195312 C 5.464844 29.222656 5.699219 29.386719 5.722656 29.515625 C 5.953125 30.890625 5.828125 31.03125 4.464844 31.054688 C 4.445312 31.054688 4.425781 31.058594 4.40625 31.054688 C 3.988281 31 3.859375 31.1875 3.890625 31.59375 C 4.136719 34.976562 4.90625 38.222656 6.367188 41.292969 C 7.027344 42.679688 6.835938 42.472656 7.988281 41.800781 C 8.40625 41.554688 8.613281 41.585938 8.851562 42.023438 C 9.582031 43.367188 9.601562 43.027344 8.417969 43.710938 C 7.992188 43.957031 7.921875 44.140625 8.203125 44.554688 C 9.664062 46.722656 11.371094 48.671875 13.402344 50.320312 C 14.269531 51.027344 15.199219 51.667969 16.15625 52.382812 C 16.453125 51.886719 16.664062 51.492188 16.921875 51.132812 C 17.007812 51.015625 17.246094 50.894531 17.363281 50.929688 C 18.613281 51.316406 18.75 51.664062 18.125 52.777344 C 18.105469 52.8125 18.085938 52.84375 18.0625 52.875 C 17.855469 53.160156 17.894531 53.375 18.234375 53.519531 C 18.378906 53.578125 18.511719 53.65625 18.652344 53.726562 C 21.816406 55.265625 25.167969 56.09375 28.671875 56.34375 C 29.0625 56.371094 29.210938 56.242188 29.183594 55.855469 C 29.164062 55.542969 29.1875 55.230469 29.179688 54.917969 C 29.167969 54.632812 29.273438 54.511719 29.578125 54.488281 C 31.03125 54.375 31.03125 54.367188 31.054688 55.777344 C 31.054688 55.816406 31.058594 55.855469 31.054688 55.894531 C 31.015625 56.265625 31.195312 56.367188 31.542969 56.34375 C 34.945312 56.101562 38.214844 55.332031 41.300781 53.863281 C 42.703125 53.195312 42.457031 53.421875 41.792969 52.242188 C 41.550781 51.808594 41.605469 51.613281 42.03125 51.382812 C 43.132812 50.785156 43.144531 50.757812 43.71875 51.828125 C 43.957031 52.273438 44.160156 52.296875 44.566406 52.023438 C 47.402344 50.117188 49.804688 47.773438 51.742188 44.960938 C 52.363281 44.054688 52.363281 44.054688 51.425781 43.5 C 50.769531 43.113281 50.769531 43.113281 51.140625 42.453125 C 51.679688 41.492188 51.679688 41.492188 52.628906 42.023438 C 53.316406 42.414062 53.320312 42.414062 53.679688 41.683594 C 55.242188 38.507812 56.074219 35.136719 56.34375 31.617188 C 56.378906 31.171875 56.226562 31.011719 55.792969 31.050781 C 55.5 31.074219 55.207031 31.042969 54.914062 31.054688 C 54.621094 31.066406 54.507812 30.953125 54.488281 30.648438 C 54.378906 29.207031 54.371094 29.207031 55.78125 29.179688 C 55.800781 29.179688 55.824219 29.175781 55.839844 29.179688 C 56.273438 29.234375 56.40625 29.015625 56.339844 28.628906 C 55.992188 26.652344 55.640625 24.675781 55.261719 22.613281 Z M 55.261719 22.613281 "/>
<path style=" stroke:none;fill-rule:nonzero;fill:rgb(73.72549%,85.882353%,100%);fill-opacity:1;" d="M 55.277344 22.65625 C 55.640625 24.675781 55.992188 26.652344 56.339844 28.628906 C 56.40625 29.015625 56.273438 29.234375 55.839844 29.179688 C 55.824219 29.175781 55.800781 29.179688 55.78125 29.179688 C 54.371094 29.207031 54.378906 29.207031 54.488281 30.648438 C 54.507812 30.953125 54.621094 31.066406 54.914062 31.054688 C 55.207031 31.042969 55.5 31.074219 55.792969 31.050781 C 56.226562 31.011719 56.378906 31.171875 56.34375 31.617188 C 56.074219 35.136719 55.242188 38.507812 53.679688 41.683594 C 53.320312 42.414062 53.316406 42.414062 52.628906 42.023438 C 51.679688 41.492188 51.679688 41.492188 51.140625 42.453125 C 50.769531 43.113281 50.769531 43.113281 51.425781 43.5 C 52.363281 44.054688 52.363281 44.054688 51.742188 44.960938 C 49.804688 47.773438 47.402344 50.117188 44.566406 52.023438 C 44.160156 52.296875 43.957031 52.273438 43.71875 51.828125 C 43.144531 50.757812 43.132812 50.785156 42.03125 51.382812 C 41.605469 51.613281 41.550781 51.808594 41.792969 52.242188 C 42.457031 53.421875 42.703125 53.195312 41.300781 53.863281 C 38.214844 55.332031 34.945312 56.101562 31.542969 56.34375 C 31.195312 56.367188 31.015625 56.265625 31.054688 55.894531 C 31.058594 55.855469 31.054688 55.816406 31.054688 55.777344 C 31.03125 54.367188 31.03125 54.375 29.578125 54.488281 C 29.273438 54.511719 29.167969 54.632812 29.179688 54.917969 C 29.1875 55.230469 29.164062 55.542969 29.183594 55.855469 C 29.210938 56.242188 29.0625 56.371094 28.671875 56.34375 C 25.167969 56.09375 21.816406 55.265625 18.652344 53.726562 C 18.511719 53.65625 18.378906 53.578125 18.234375 53.519531 C 17.894531 53.375 17.855469 53.160156 18.0625 52.875 C 18.085938 52.84375 18.105469 52.8125 18.125 52.777344 C 18.75 51.664062 18.613281 51.316406 17.363281 50.929688 C 17.246094 50.894531 17.007812 51.015625 16.921875 51.132812 C 16.664062 51.492188 16.453125 51.886719 16.15625 52.382812 C 15.199219 51.667969 14.269531 51.027344 13.402344 50.320312 C 11.371094 48.671875 9.664062 46.722656 8.203125 44.554688 C 7.921875 44.140625 7.992188 43.957031 8.417969 43.710938 C 9.601562 43.027344 9.582031 43.367188 8.851562 42.023438 C 8.613281 41.585938 8.40625 41.554688 7.988281 41.800781 C 6.835938 42.472656 7.027344 42.679688 6.367188 41.292969 C 4.90625 38.222656 4.136719 34.976562 3.890625 31.59375 C 3.859375 31.1875 3.988281 31 4.40625 31.054688 C 4.425781 31.058594 4.445312 31.054688 4.464844 31.054688 C 5.828125 31.03125 5.953125 30.890625 5.722656 29.515625 C 5.699219 29.386719 5.464844 29.222656 5.304688 29.195312 C 4.855469 29.117188 4.191406 29.273438 3.988281 29.023438 C 3.765625 28.757812 3.945312 28.136719 3.988281 27.675781 C 4.296875 24.375 5.203125 21.242188 6.6875 18.277344 C 6.878906 17.890625 7.097656 17.855469 7.417969 18.085938 C 7.433594 18.09375 7.449219 18.105469 7.46875 18.113281 C 7.832031 18.277344 8.363281 18.675781 8.523438 18.558594 C 8.886719 18.292969 9.089844 17.789062 9.304688 17.355469 C 9.351562 17.261719 9.214844 17.003906 9.097656 16.917969 C 8.738281 16.660156 8.34375 16.449219 7.851562 16.15625 C 8.578125 15.175781 9.230469 14.234375 9.953125 13.351562 C 11.585938 11.359375 13.5 9.675781 15.632812 8.234375 C 16.042969 7.957031 16.253906 7.933594 16.53125 8.417969 C 17.195312 9.582031 16.847656 9.597656 18.21875 8.847656 C 18.660156 8.609375 18.675781 8.390625 18.429688 7.980469 C 17.792969 6.914062 17.808594 6.898438 18.945312 6.359375 C 22.019531 4.910156 25.265625 4.132812 28.648438 3.886719 C 29.0625 3.859375 29.183594 4.003906 29.1875 4.410156 C 29.207031 5.828125 29.21875 5.816406 30.609375 5.75 C 30.933594 5.730469 31.054688 5.628906 31.0625 5.300781 C 31.070312 4.84375 30.972656 4.234375 31.21875 3.980469 C 31.425781 3.765625 32.0625 3.945312 32.507812 3.988281 C 35.832031 4.285156 38.980469 5.195312 41.964844 6.691406 C 42.300781 6.859375 42.402344 7.050781 42.164062 7.367188 C 42.152344 7.382812 42.144531 7.402344 42.132812 7.417969 C 41.464844 8.628906 41.523438 8.792969 42.832031 9.285156 C 42.949219 9.332031 43.125 9.238281 43.269531 9.191406 C 43.308594 9.175781 43.328125 9.09375 43.359375 9.046875 C 44.097656 7.890625 44.101562 7.882812 45.214844 8.667969 C 47.910156 10.566406 50.152344 12.902344 52.003906 15.632812 C 52.320312 16.101562 52.230469 16.292969 51.765625 16.554688 C 50.632812 17.199219 50.699219 16.914062 51.324219 18.121094 C 51.605469 18.664062 51.859375 18.6875 52.355469 18.378906 C 53.308594 17.785156 53.367188 17.796875 53.8125 18.847656 C 54.335938 20.085938 54.78125 21.355469 55.277344 22.65625 Z M 21.0625 9.515625 C 17.9375 10.921875 15.214844 12.878906 13.011719 15.519531 C 8.839844 20.507812 7.042969 26.261719 7.777344 32.714844 C 8.449219 38.585938 11.078125 43.507812 15.628906 47.304688 C 20.863281 51.671875 26.925781 53.367188 33.660156 52.320312 C 39.4375 51.421875 44.203125 48.625 47.796875 44 C 51.839844 38.800781 53.359375 32.890625 52.28125 26.382812 C 51.398438 21.039062 48.851562 16.585938 44.746094 13.054688 C 40.789062 9.644531 36.160156 7.871094 30.957031 7.632812 C 27.550781 7.480469 24.277344 8.136719 21.0625 9.515625 Z M 21.0625 9.515625 "/>
<path style=" stroke:none;fill-rule:nonzero;fill:rgb(34.509804%,64.313725%,100%);fill-opacity:1;" d="M 21.105469 9.496094 C 24.277344 8.136719 27.550781 7.480469 30.957031 7.632812 C 36.160156 7.871094 40.789062 9.644531 44.746094 13.054688 C 48.851562 16.585938 51.398438 21.039062 52.28125 26.382812 C 53.359375 32.890625 51.839844 38.800781 47.796875 44 C 44.203125 48.625 39.4375 51.421875 33.660156 52.320312 C 26.925781 53.367188 20.863281 51.671875 15.628906 47.304688 C 11.078125 43.507812 8.449219 38.585938 7.777344 32.714844 C 7.042969 26.261719 8.839844 20.507812 13.011719 15.519531 C 15.214844 12.878906 17.9375 10.921875 21.105469 9.496094 Z M 14.359375 16.984375 C 12.976562 18.519531 11.984375 20.289062 11.167969 22.175781 C 10.324219 24.132812 9.796875 26.179688 9.636719 28.289062 C 9.53125 29.675781 9.648438 31.085938 9.734375 32.480469 C 9.863281 34.613281 10.519531 36.621094 11.375 38.554688 C 12.691406 41.523438 14.671875 43.984375 17.164062 46.058594 C 18.835938 47.453125 20.699219 48.535156 22.714844 49.308594 C 25.253906 50.28125 27.90625 50.816406 30.648438 50.617188 C 32.003906 50.515625 33.375 50.417969 34.695312 50.136719 C 38.117188 49.410156 41.128906 47.808594 43.730469 45.488281 C 45.269531 44.113281 46.589844 42.539062 47.679688 40.761719 C 49.347656 38.027344 50.347656 35.070312 50.589844 31.90625 C 50.714844 30.238281 50.523438 28.539062 50.378906 26.867188 C 50.214844 25.011719 49.578125 23.273438 48.820312 21.589844 C 47.515625 18.707031 45.59375 16.296875 43.167969 14.269531 C 41.316406 12.726562 39.261719 11.574219 36.996094 10.769531 C 34.523438 9.886719 31.992188 9.492188 29.363281 9.59375 C 27.625 9.660156 25.945312 9.9375 24.285156 10.417969 C 21.730469 11.160156 19.398438 12.351562 17.347656 14.03125 C 16.292969 14.898438 15.382812 15.949219 14.359375 16.984375 Z M 14.359375 16.984375 "/>
<path style=" stroke:none;fill-rule:nonzero;fill:rgb(34.509804%,64.313725%,100%);fill-opacity:1;" d="M 33.378906 27.894531 C 35.371094 28.792969 36.925781 30.128906 37.777344 32.113281 C 39.113281 35.210938 38.859375 38.179688 36.820312 40.929688 C 35.894531 42.179688 34.710938 43.082031 33.246094 43.617188 C 33.105469 43.667969 32.953125 43.910156 32.945312 44.070312 C 32.910156 44.75 32.9375 45.4375 32.929688 46.121094 C 32.921875 46.746094 32.675781 46.988281 32.046875 46.992188 C 30.757812 46.996094 29.46875 46.996094 28.179688 46.988281 C 27.550781 46.988281 27.3125 46.742188 27.304688 46.113281 C 27.300781 45.46875 27.285156 44.824219 27.3125 44.179688 C 27.328125 43.828125 27.191406 43.710938 26.875 43.578125 C 23.898438 42.324219 22.21875 40.039062 21.691406 36.886719 C 21.617188 36.449219 21.664062 35.988281 21.683594 35.539062 C 21.703125 35.09375 21.957031 34.816406 22.410156 34.8125 C 23.796875 34.796875 25.183594 34.792969 26.570312 34.8125 C 27.101562 34.820312 27.367188 35.222656 27.421875 36.027344 C 27.5 37.183594 28.191406 37.925781 29.1875 38.292969 C 30.191406 38.664062 31.167969 38.496094 32 37.683594 C 32.84375 36.859375 33.039062 35.882812 32.671875 34.839844 C 32.308594 33.792969 31.527344 33.152344 30.367188 33.042969 C 28.90625 32.910156 27.457031 32.746094 26.136719 32 C 23.761719 30.660156 22.257812 28.699219 21.804688 26 C 21.289062 22.941406 22.144531 20.289062 24.441406 18.195312 C 25.144531 17.554688 26.042969 17.117188 26.894531 16.660156 C 27.199219 16.5 27.324219 16.378906 27.3125 16.039062 C 27.285156 15.414062 27.300781 14.789062 27.304688 14.164062 C 27.308594 13.496094 27.546875 13.246094 28.199219 13.242188 C 29.488281 13.238281 30.777344 13.238281 32.0625 13.246094 C 32.683594 13.246094 32.921875 13.5 32.929688 14.132812 C 32.933594 14.777344 32.945312 15.421875 32.921875 16.066406 C 32.910156 16.378906 33.007812 16.523438 33.3125 16.648438 C 36.105469 17.816406 37.84375 19.875 38.429688 22.859375 C 38.539062 23.421875 38.539062 24.011719 38.546875 24.589844 C 38.558594 25.148438 38.296875 25.421875 37.757812 25.425781 C 36.410156 25.4375 35.0625 25.4375 33.714844 25.425781 C 33.152344 25.417969 32.882812 25.089844 32.820312 24.253906 C 32.714844 22.8125 31.558594 21.945312 30.699219 21.8125 C 28.984375 21.542969 27.871094 22.496094 27.503906 23.757812 C 27.011719 25.460938 28.253906 27.039062 29.820312 27.199219 C 31.007812 27.320312 32.230469 27.316406 33.378906 27.894531 Z M 34.796875 35.371094 C 34.855469 38.246094 32.839844 40.425781 30.117188 40.429688 C 28.105469 40.429688 26.371094 39.167969 25.660156 37.222656 C 25.585938 37.019531 25.402344 36.730469 25.238281 36.707031 C 24.746094 36.640625 24.238281 36.683594 23.660156 36.683594 C 23.699219 36.953125 23.707031 37.144531 23.757812 37.324219 C 24.386719 39.621094 25.8125 41.179688 28.070312 41.957031 C 29.09375 42.308594 29.179688 42.417969 29.179688 43.511719 C 29.179688 43.921875 29.164062 44.332031 29.191406 44.742188 C 29.199219 44.863281 29.320312 45.082031 29.398438 45.085938 C 29.902344 45.109375 30.4375 45.175781 30.898438 45.027344 C 31.050781 44.976562 31.011719 44.332031 31.054688 43.957031 C 31.066406 43.84375 31.054688 43.722656 31.054688 43.605469 C 31.054688 42.382812 31.101562 42.320312 32.242188 41.933594 C 35.367188 40.875 37.230469 37.539062 36.492188 34.320312 C 35.796875 31.289062 33.242188 29.246094 30.0625 29.179688 C 27.984375 29.136719 26.191406 27.773438 25.621094 25.804688 C 25.054688 23.847656 25.824219 21.714844 27.503906 20.605469 C 30.097656 18.890625 33.496094 20.039062 34.5625 22.992188 C 34.636719 23.191406 34.777344 23.5 34.914062 23.515625 C 35.441406 23.578125 35.984375 23.542969 36.503906 23.542969 C 36.53125 23.390625 36.558594 23.332031 36.550781 23.277344 C 36.53125 23.140625 36.507812 23.007812 36.46875 22.875 C 35.808594 20.511719 34.308594 18.945312 31.964844 18.214844 C 31.363281 18.027344 31.027344 17.695312 31.050781 17.039062 C 31.070312 16.53125 31.078125 16.023438 31.035156 15.519531 C 31.023438 15.375 30.820312 15.152344 30.683594 15.136719 C 29.21875 14.9375 29.179688 14.980469 29.179688 16.425781 C 29.179688 16.464844 29.179688 16.503906 29.179688 16.542969 C 29.179688 17.882812 29.179688 17.882812 27.90625 18.328125 C 24.933594 19.371094 23.1875 22.410156 23.6875 25.660156 C 24.132812 28.558594 26.878906 30.957031 29.855469 31.050781 C 32.628906 31.136719 34.257812 32.53125 34.796875 35.371094 Z M 34.796875 35.371094 "/>
<path style=" stroke:none;fill-rule:nonzero;fill:rgb(34.117647%,64.313725%,100%);fill-opacity:1;" d="M 15.34375 31.054688 C 14.941406 31.054688 14.59375 31.054688 14.214844 31.054688 C 14.214844 30.429688 14.214844 29.839844 14.214844 29.214844 C 14.804688 29.214844 15.394531 29.214844 16.019531 29.214844 C 16.019531 29.804688 16.019531 30.398438 16.019531 31.054688 C 15.8125 31.054688 15.605469 31.054688 15.34375 31.054688 Z M 15.34375 31.054688 "/>
<path style=" stroke:none;fill-rule:nonzero;fill:rgb(34.117647%,64.313725%,100%);fill-opacity:1;" d="M 46.054688 30.457031 C 46.046875 30.679688 46.039062 30.847656 46.027344 31.035156 C 45.414062 31.035156 44.835938 31.035156 44.21875 31.035156 C 44.21875 30.441406 44.21875 29.851562 44.21875 29.21875 C 44.792969 29.21875 45.382812 29.21875 46.054688 29.21875 C 46.054688 29.601562 46.054688 30 46.054688 30.457031 Z M 46.054688 30.457031 "/>
<path style=" stroke:none;fill-rule:nonzero;fill:rgb(73.72549%,85.490196%,100%);fill-opacity:1;" d="M 34.789062 35.320312 C 34.257812 32.53125 32.628906 31.136719 29.855469 31.050781 C 26.878906 30.957031 24.132812 28.558594 23.6875 25.660156 C 23.183594 22.410156 24.933594 19.371094 27.90625 18.328125 C 29.179688 17.882812 29.179688 17.882812 29.179688 16.542969 C 29.179688 16.503906 29.179688 16.464844 29.179688 16.425781 C 29.179688 14.980469 29.21875 14.9375 30.683594 15.136719 C 30.820312 15.152344 31.023438 15.375 31.035156 15.519531 C 31.078125 16.023438 31.070312 16.53125 31.050781 17.039062 C 31.027344 17.695312 31.363281 18.027344 31.964844 18.214844 C 34.308594 18.945312 35.808594 20.511719 36.46875 22.875 C 36.507812 23.007812 36.53125 23.140625 36.550781 23.277344 C 36.558594 23.332031 36.53125 23.390625 36.503906 23.542969 C 35.984375 23.542969 35.441406 23.578125 34.914062 23.515625 C 34.777344 23.5 34.636719 23.191406 34.5625 22.992188 C 33.496094 20.039062 30.097656 18.890625 27.503906 20.605469 C 25.824219 21.714844 25.054688 23.847656 25.621094 25.804688 C 26.191406 27.773438 27.984375 29.136719 30.0625 29.179688 C 33.242188 29.246094 35.796875 31.289062 36.492188 34.320312 C 37.230469 37.539062 35.367188 40.875 32.242188 41.933594 C 31.101562 42.320312 31.054688 42.382812 31.054688 43.605469 C 31.054688 43.722656 31.066406 43.84375 31.054688 43.957031 C 31.011719 44.332031 31.050781 44.976562 30.898438 45.027344 C 30.4375 45.175781 29.902344 45.109375 29.398438 45.085938 C 29.320312 45.082031 29.199219 44.863281 29.191406 44.742188 C 29.164062 44.332031 29.179688 43.921875 29.179688 43.511719 C 29.179688 42.417969 29.09375 42.308594 28.070312 41.957031 C 25.8125 41.179688 24.386719 39.621094 23.757812 37.324219 C 23.707031 37.144531 23.699219 36.953125 23.660156 36.683594 C 24.238281 36.683594 24.746094 36.640625 25.238281 36.707031 C 25.402344 36.730469 25.585938 37.019531 25.660156 37.222656 C 26.371094 39.167969 28.105469 40.429688 30.117188 40.429688 C 32.839844 40.425781 34.855469 38.246094 34.789062 35.320312 Z M 34.789062 35.320312 "/>
</g>
</svg>
